<svg fill="#ffffff" viewBox="0 0 32 32" xmlns="http://www.w3.org/2000/svg"><g id="Box_x2C__delivery_x2C__drone_x2C__quadcopter_x2C__shipping"><path d="m20.243 3.758c-.128 0-.256-.049-.354-.146-1.039-1.04-2.42-1.612-3.889-1.612s-2.85.572-3.889 1.611c-.195.195-.512.195-.707 0s-.195-.512 0-.707c1.227-1.227 2.859-1.904 4.596-1.904 1.736 0 3.369.676 4.597 1.904.195.195.195.512 0 .707-.098.098-.226.147-.354.147z" fill="#ffffff"></path><path d="m18.829 5.172c-.128 0-.256-.049-.354-.146-1.322-1.322-3.628-1.322-4.95 0-.195.195-.512.195-.707 0s-.195-.512 0-.707c.849-.851 1.979-1.319 3.182-1.319s2.333.468 3.183 1.318c.195.195.195.512 0 .707-.099.098-.226.147-.354.147z" fill="#ffffff"></path><g id="XMLID_3_"><path d="m10.5 18c-.052 0-.105-.008-.158-.025-.262-.088-.403-.371-.316-.633l1-3c.087-.262.369-.404.632-.316.262.087.403.37.316.632l-1 3c-.07.209-.265.342-.474.342z" fill="#ffffff"></path></g><g id="XMLID_1_"><path d="m21.5 18c-.209 0-.404-.133-.474-.342l-1-3c-.087-.262.054-.545.316-.632.264-.088.545.054.632.316l1 3c.087.262-.054.545-.316.633-.053.017-.106.025-.158.025z" fill="#ffffff"></path></g><path d="m16 7c.827 0 1.5.673 1.5 1.5h1c0-1.378-1.122-2.5-2.5-2.5s-2.5 1.122-2.5 2.5h1c0-.827.673-1.5 1.5-1.5z" fill="#ffffff"></path><path d="m24.5 9h-17c-.276 0-.5-.224-.5-.5s.224-.5.5-.5h17c.276 0 .5.224.5.5s-.224.5-.5.5z" fill="#ffffff"></path><path d="m26.583 9.126-4.436.634c-1.236.176-2.292 1.005-2.755 2.164l-.602 1.506c-.382.953-1.293 1.57-2.321 1.57h-.938c-1.028 0-1.939-.617-2.321-1.57l-.603-1.506c-.463-1.159-1.519-1.988-2.754-2.164l-4.353-.622v1.01l4.212.602c.882.125 1.636.718 1.967 1.545l.603 1.506c.535 1.336 1.81 2.199 3.25 2.199h.938c1.439 0 2.715-.863 3.25-2.199l.603-1.506c.331-.827 1.084-1.419 1.967-1.545l4.295-.614v-1.01z" fill="#ffffff"></path><g><g id="XMLID_15_"><g><path d="m7.5 7h-2c-.276 0-.5-.224-.5-.5s.224-.5.5-.5h2c.276 0 .5.224.5.5s-.224.5-.5.5z" fill="#ffffff"></path></g><g><path d="m3.5 7h-2c-.276 0-.5-.224-.5-.5s.224-.5.5-.5h2c.276 0 .5.224.5.5s-.224.5-.5.5z" fill="#ffffff"></path></g></g><g><path d="m4.5 12.5c-.827 0-1.5-.673-1.5-1.5v-2.5c0-.276.224-.5.5-.5h2c.276 0 .5.224.5.5v2.5c0 .827-.673 1.5-1.5 1.5zm-.5-3.5v2c0 .276.224.5.5.5s.5-.224.5-.5v-2z" fill="#ffffff"></path></g><circle cx="4.5" cy="5.5" fill="#ffffff" r=".5"></circle></g><g><g id="XMLID_2428_"><g><path d="m30.5 7h-2c-.276 0-.5-.224-.5-.5s.224-.5.5-.5h2c.276 0 .5.224.5.5s-.224.5-.5.5z" fill="#ffffff"></path></g><g><path d="m4.5 9c-.276 0-.5-.224-.5-.5v-1.5c0-.276.224-.5.5-.5s.5.224.5.5v1.5c0 .276-.224.5-.5.5z" fill="#ffffff"></path></g><g><path d="m27.5 9c-.276 0-.5-.224-.5-.5v-1.5c0-.276.224-.5.5-.5s.5.224.5.5v1.5c0 .276-.224.5-.5.5z" fill="#ffffff"></path></g><g><path d="m26.5 7h-2c-.276 0-.5-.224-.5-.5s.224-.5.5-.5h2c.276 0 .5.224.5.5s-.224.5-.5.5z" fill="#ffffff"></path></g></g><g><path d="m27.5 12.5c-.827 0-1.5-.673-1.5-1.5v-2.5c0-.276.224-.5.5-.5h2c.276 0 .5.224.5.5v2.5c0 .827-.673 1.5-1.5 1.5zm-.5-3.5v2c0 .276.224.5.5.5s.5-.224.5-.5v-2z" fill="#ffffff"></path></g><circle cx="27.5" cy="5.5" fill="#ffffff" r=".5"></circle></g><g fill="#ffffff"><circle cx="4.5" cy="19.5" r=".5"></circle><circle cx="4.5" cy="17.5" r=".5"></circle><circle cx="4.5" cy="15.5" r=".5"></circle><circle cx="27.5" cy="19.5" r=".5"></circle><circle cx="27.5" cy="17.5" r=".5"></circle><circle cx="27.5" cy="15.5" r=".5"></circle><path d="m21.5 31h-11c-.276 0-.5-.224-.5-.5v-11c0-.276.224-.5.5-.5h11c.276 0 .5.224.5.5v11c0 .276-.224.5-.5.5zm-10.5-1h10v-10h-10z"></path></g><g><path d="m14.498 23.997c-.128 0-.256-.049-.354-.146l-3.498-3.497c-.195-.195-.195-.512 0-.707s.512-.195.707 0l3.498 3.497c.195.195.195.512 0 .707-.098.097-.226.146-.353.146z" fill="#ffffff"></path></g><g><path d="m21 30.5c-.128 0-.256-.049-.354-.146l-3.47-3.471c-.195-.195-.195-.512 0-.707s.512-.195.707 0l3.47 3.471c.195.195.195.512 0 .707-.097.097-.225.146-.353.146z" fill="#ffffff"></path></g><g><path d="m11 30.5c-.128 0-.256-.049-.354-.146-.195-.195-.195-.512 0-.707l10-10c.195-.195.512-.195.707 0s.195.512 0 .707l-10 10c-.097.097-.225.146-.353.146z" fill="#ffffff"></path></g><g id="XMLID_6_"><path d="m17 13h-2c-.276 0-.5-.224-.5-.5s.224-.5.5-.5h2c.276 0 .5.224.5.5s-.224.5-.5.5z" fill="#ffffff"></path></g></g></svg>